<svg width="30" height="30" viewBox="0 0 30 30" fill="none" xmlns="http://www.w3.org/2000/svg">
<g clip-path="url(#clip0)">
<g filter="url(#filter0_d)">
<path d="M17.2876 23.75C17.1008 23.7506 16.9163 23.7094 16.7476 23.6294C16.5789 23.5493 16.4302 23.4325 16.3126 23.2875L10.2751 15.7875C10.0912 15.5638 9.99072 15.2833 9.99072 14.9937C9.99072 14.7042 10.0912 14.4236 10.2751 14.2L16.5251 6.69998C16.7373 6.44471 17.0421 6.28418 17.3727 6.2537C17.7032 6.22323 18.0323 6.32531 18.2876 6.53748C18.5429 6.74965 18.7034 7.05454 18.7339 7.38507C18.7643 7.71561 18.6623 8.04471 18.4501 8.29998L12.8626 15L18.2626 21.7C18.4154 21.8835 18.5125 22.1069 18.5424 22.3438C18.5722 22.5808 18.5336 22.8213 18.431 23.0369C18.3284 23.2526 18.1662 23.4344 17.9636 23.5607C17.761 23.6871 17.5264 23.7528 17.2876 23.75Z" fill="white"/>
</g>
</g>
<defs>
<filter id="filter0_d" x="5.99072" y="6.24841" width="16.7484" height="25.5017" filterUnits="userSpaceOnUse" color-interpolation-filters="sRGB">
<feFlood flood-opacity="0" result="BackgroundImageFix"/>
<feColorMatrix in="SourceAlpha" type="matrix" values="0 0 0 0 0 0 0 0 0 0 0 0 0 0 0 0 0 0 127 0"/>
<feOffset dy="4"/>
<feGaussianBlur stdDeviation="2"/>
<feColorMatrix type="matrix" values="0 0 0 0 0 0 0 0 0 0 0 0 0 0 0 0 0 0 0.25 0"/>
<feBlend mode="normal" in2="BackgroundImageFix" result="effect1_dropShadow"/>
<feBlend mode="normal" in="SourceGraphic" in2="effect1_dropShadow" result="shape"/>
</filter>
<clipPath id="clip0">
<rect width="30" height="30" fill="white"/>
</clipPath>
</defs>
</svg>
