<svg width="45" height="39" viewBox="0 0 45 39" fill="none" xmlns="http://www.w3.org/2000/svg">
<path fill-rule="evenodd" clip-rule="evenodd" d="M22.2962 0C10.0023 0 0 7.63492 0 17.0198V19.068C0 23.2468 3.39887 26.6466 7.57776 26.6466H10.4859C11.9018 28.0492 13.8144 28.8442 15.8142 28.8442H18.4585C19.8339 30.887 22.1221 32.1446 24.6064 32.1912L26.3476 36.7254C26.76 37.9293 27.8927 38.7383 29.1652 38.7383C29.4941 38.7383 29.8195 38.6838 30.1316 38.5765C30.8844 38.3188 31.4921 37.7824 31.8412 37.0674C32.1912 36.3525 32.2413 35.5443 31.9828 34.7924L31.0911 32.1921H33.9711C34.5286 32.1921 35.1011 32.1244 35.6762 31.9916C35.7325 31.9845 35.7897 31.9731 35.846 31.9564L35.9198 31.9318C36.3208 31.8245 36.706 31.6891 37.0261 31.5448C41.9068 29.5565 44.5942 24.398 44.5942 17.0198C44.5942 7.63492 34.5919 0 22.2962 0ZM39.5192 24.4017C38.828 24.4773 38.1808 24.2442 37.5564 23.6946C36.1898 22.4916 34.8417 22.051 33.5464 22.3799C31.464 22.9111 30.5626 25.2327 30.4667 25.4956C30.2469 26.0998 30.5573 26.7655 31.1606 26.9888C31.2934 27.0381 31.4297 27.0609 31.5633 27.0609C32.0373 27.0609 32.4841 26.7699 32.6599 26.3012C32.7998 25.9309 33.3678 24.8334 34.1285 24.6435C34.7538 24.4861 35.4977 24.9952 36.0113 25.4481C37.071 26.3803 38.3013 26.8156 39.5755 26.7347C38.6451 27.9307 37.4878 28.8347 36.1072 29.3966C35.8653 29.5057 35.5998 29.5989 35.2981 29.6789L35.2832 29.6833C35.2673 29.6877 35.2515 29.6903 35.2348 29.6947C34.8039 29.8011 34.3792 29.8557 33.9711 29.8557H29.4554C29.0781 29.8557 28.7238 30.0377 28.5039 30.3455C28.2849 30.6524 28.2278 31.0464 28.35 31.4025L29.772 35.5506C29.8274 35.7133 29.8177 35.8866 29.7421 36.0413C29.6673 36.1952 29.5354 36.3113 29.3745 36.3667C29.0377 36.4802 28.6727 36.3043 28.5435 35.9279L26.5006 30.6058C26.3274 30.1538 25.8939 29.8557 25.4102 29.8557H24.748C23.4113 29.8557 22.1564 29.3386 21.2032 28.4609C21.2366 28.4143 21.2753 28.3739 21.3025 28.322C21.4406 28.0582 22.7087 25.7805 25.0496 26.6213C26.2526 27.0548 27.4776 26.8209 28.4116 25.9837C29.6366 24.8853 30.1695 22.9401 29.7377 21.1435C29.2883 19.2765 27.8857 17.9029 25.8886 17.3735C25.2677 17.2117 24.6249 17.5802 24.4596 18.2045C24.2942 18.828 24.6662 19.4682 25.2897 19.6327C26.7733 20.0258 27.2921 20.9685 27.4653 21.6905C27.6922 22.6297 27.4275 23.7272 26.8524 24.2434C26.5578 24.5089 26.2368 24.5652 25.8393 24.4228C22.8168 23.3367 20.6289 25.1324 19.6018 26.6248C19.4505 26.5544 19.2878 26.5078 19.1155 26.5078H15.8142C14.3069 26.5078 12.8691 25.8527 11.8701 24.7094C11.6485 24.4553 11.3275 24.3102 10.9907 24.3102H7.57778C4.68809 24.3102 2.33658 21.9587 2.33658 19.0681V17.02C2.33658 10.115 8.85818 4.32327 17.6029 2.7641C15.7245 4.34614 15.0623 6.20254 15.028 6.30455C14.8179 6.91485 15.1415 7.57968 15.7527 7.78985C15.8784 7.83294 16.0059 7.85405 16.1326 7.85405C16.6171 7.85405 17.0709 7.5489 17.2371 7.06523C17.245 7.04149 18.1112 4.70229 20.7151 3.54501C23.1748 2.45192 26.3951 2.70782 30.2741 4.27578C29.0799 6.02139 26.2271 5.55707 26.0891 5.53332C25.4612 5.42692 24.8509 5.84463 24.7374 6.47955C24.624 7.11448 25.0461 7.72126 25.6819 7.8347C26.0733 7.90505 26.542 7.9499 27.0494 7.9499C29.0825 7.9499 31.7542 7.23056 32.7558 4.53785C38.4455 7.12767 42.2568 11.7471 42.2568 17.02C42.2568 19.6001 41.8945 21.8488 41.2059 23.7272C40.6774 24.0728 40.1005 24.3392 39.5192 24.4017Z" fill="#06623B"/>
<path fill-rule="evenodd" clip-rule="evenodd" d="M37.7887 19.0241C36.1785 19.1164 35.0318 18.7734 34.3819 18.004C33.2466 16.6602 33.7505 14.3184 33.7646 14.2577C33.9106 13.6307 33.521 13.0028 32.894 12.856C32.2714 12.7091 31.6382 13.0978 31.4887 13.7257C31.4553 13.8682 30.6902 17.2406 32.5871 19.4998C33.6327 20.7459 35.213 21.3747 37.2927 21.3747C37.4968 21.3747 37.7078 21.3694 37.9224 21.3571C38.567 21.3202 39.0586 20.7679 39.0225 20.1233C38.9847 19.4796 38.45 18.9889 37.7887 19.0241Z" fill="#06623B"/>
<path fill-rule="evenodd" clip-rule="evenodd" d="M27.9475 10.5245C26.4007 11.8093 24.524 12.3826 22.6527 12.1461C21.0346 11.9377 19.5273 11.1084 18.7183 9.98101C18.3436 9.45689 17.6137 9.33642 17.0879 9.71192C16.5646 10.0874 16.4441 10.8173 16.8196 11.3423C18.0112 13.0044 20.0804 14.1713 22.3554 14.4633C22.7345 14.5117 23.1135 14.5363 23.4916 14.5363C25.6206 14.5363 27.6987 13.7695 29.4407 12.322C29.9376 11.9095 30.0053 11.1735 29.5938 10.6766C29.1804 10.1815 28.4444 10.1112 27.9475 10.5245Z" fill="#06623B"/>
<path fill-rule="evenodd" clip-rule="evenodd" d="M18.077 16.0877C15.583 14.7088 12.6318 15.9478 12.5078 16.0006C11.9168 16.2539 11.6442 16.9372 11.8948 17.5299C12.1472 18.1226 12.8349 18.3961 13.425 18.1498C13.4452 18.141 15.4678 17.3091 16.9549 18.1375C17.8501 18.6388 18.4305 19.7055 18.6811 21.3086C18.7708 21.8855 19.2686 22.2971 19.834 22.2971C19.8938 22.2971 19.9554 22.2927 20.0152 22.283C20.6536 22.1836 21.0898 21.5856 20.9904 20.9481C20.6211 18.5895 19.6414 16.9539 18.077 16.0877Z" fill="#06623B"/>
<path fill-rule="evenodd" clip-rule="evenodd" d="M5.86493 15.3877C5.9432 15.4035 6.02147 15.4114 6.09885 15.4114C6.6432 15.4114 7.12951 15.0306 7.24295 14.4766C7.55074 12.9746 8.16368 11.9228 9.06682 11.3504C10.3349 10.5457 11.8483 10.8957 11.8818 10.9036C12.5026 11.061 13.1367 10.6864 13.2985 10.0629C13.4603 9.43854 13.0848 8.80186 12.4604 8.64005C12.361 8.61455 9.98666 8.02184 7.84797 9.35588C6.37059 10.2784 5.39621 11.8437 4.95388 14.0088C4.82373 14.6411 5.23177 15.2584 5.86493 15.3877Z" fill="#06623B"/>
<path fill-rule="evenodd" clip-rule="evenodd" d="M37.6796 9.51394C35.3764 7.82022 32.2845 8.67587 32.1534 8.71193C31.5326 8.88956 31.1729 9.53504 31.3506 10.1559C31.5273 10.7767 32.1789 11.1355 32.7945 10.9597C32.8139 10.9526 34.9253 10.3889 36.2945 11.3958C37.1335 12.0132 37.5802 13.1634 37.6198 14.8149C37.6365 15.4499 38.1562 15.9546 38.7876 15.9546C38.7973 15.9546 38.8078 15.9546 38.8175 15.9538C39.4621 15.9379 39.9722 15.4024 39.9572 14.7578C39.8965 12.3447 39.1306 10.5815 37.6796 9.51394Z" fill="#06623B"/>
<path fill-rule="evenodd" clip-rule="evenodd" d="M10.7234 20.2797C7.10209 20.8513 6.09078 18.4207 5.98526 18.1322C5.77244 17.5299 5.11729 17.2062 4.50435 17.4155C3.89493 17.6248 3.56868 18.2888 3.77797 18.8991C4.26252 20.3149 6.08199 22.7025 9.6796 22.7025C10.1219 22.7025 10.5915 22.6664 11.0884 22.5881C11.7251 22.487 12.1613 21.889 12.0592 21.2515C11.959 20.613 11.3628 20.1821 10.7234 20.2797Z" fill="#06623B"/>
</svg>
