<svg width="14" height="14" viewBox="0 0 14 14" fill="none" xmlns="http://www.w3.org/2000/svg">
<path d="M9.91675 1.74992H12.2501C12.4048 1.74992 12.5532 1.81138 12.6626 1.92077C12.772 2.03017 12.8334 2.17854 12.8334 2.33325V11.6666C12.8334 11.8213 12.772 11.9697 12.6626 12.0791C12.5532 12.1885 12.4048 12.2499 12.2501 12.2499H1.75008C1.59537 12.2499 1.447 12.1885 1.3376 12.0791C1.22821 11.9697 1.16675 11.8213 1.16675 11.6666V2.33325C1.16675 2.17854 1.22821 2.03017 1.3376 1.92077C1.447 1.81138 1.59537 1.74992 1.75008 1.74992H4.08342V0.583252H5.25008V1.74992H8.75008V0.583252H9.91675V1.74992ZM8.75008 2.91659H5.25008V4.08325H4.08342V2.91659H2.33341V5.24992H11.6667V2.91659H9.91675V4.08325H8.75008V2.91659ZM11.6667 6.41658H2.33341V11.0833H11.6667V6.41658ZM3.50008 8.16658H4.66675V9.33325H3.50008V8.16658ZM5.83342 8.16658H10.5001V9.33325H5.83342V8.16658Z" fill="#06623B"/>
</svg>
