<svg width="45" height="35" viewBox="0 0 45 35" fill="none" xmlns="http://www.w3.org/2000/svg">
<path fill-rule="evenodd" clip-rule="evenodd" d="M43.1144 15.6C39.8953 6.99806 34.0624 0.509846 29.5457 0.509846C28.3822 0.509846 27.2817 1.04393 26.3606 2.05312C26.1343 2.30118 25.9234 2.58882 25.7198 2.89344V2.89182V1.76709C25.7198 0.792645 24.9272 0 23.9527 0H20.7377C19.7633 0 18.9698 0.792645 18.9698 1.76709V2.89182L18.9706 2.89344C18.767 2.58882 18.5553 2.30118 18.3291 2.05312C17.4088 1.04393 16.3075 0.509846 15.1448 0.509846C10.6281 0.509846 4.79432 6.99806 1.57606 15.6C-0.66532 21.5905 -0.504529 27.7814 1.98491 31.3705C3.33669 33.3202 5.25245 34.3512 7.52212 34.3512L7.71119 34.3488C14.1946 34.1856 20.1406 26.9475 21.2249 18.0765C21.6176 18.0256 22.016 17.9917 22.4224 17.9917C22.7747 17.9917 23.1205 18.0183 23.4623 18.0563C24.5402 26.937 30.4911 34.1847 36.9793 34.3488L37.1675 34.3512C39.438 34.3512 41.353 33.3202 42.7055 31.3705C45.195 27.7814 45.355 21.5905 43.1144 15.6ZM41.046 30.219C40.0739 31.6201 38.769 32.3311 37.1676 32.3311L37.0294 32.3287C31.6813 32.1945 26.7476 26.1216 25.5777 18.5378C26.5343 18.8788 27.4215 19.3676 28.2117 19.9784H31.1334C29.0197 17.5302 25.9025 15.9716 22.4224 15.9716C18.9424 15.9716 15.8251 17.5302 13.7122 19.9784H16.6339C17.3765 19.4039 18.2087 18.941 19.1016 18.6032C17.913 26.1572 12.9939 32.1954 7.66032 32.3287L7.52216 32.3311C5.92151 32.3311 4.6166 31.6201 3.64377 30.219C1.55348 27.2052 1.48318 21.6146 3.46843 16.3085C6.65194 7.79788 12.0082 2.52973 15.1448 2.52973C15.7322 2.52973 16.301 2.82789 16.8367 3.41368C17.5615 4.20875 18.1481 5.43772 18.5844 6.94948C18.8923 8.61153 15.5787 11.9187 12.7903 12.7129V14.7967C17.4686 13.7367 20.9745 9.55285 20.9745 4.55862L20.9899 2.01989H23.6999L23.7152 4.55862C23.7152 9.55285 27.2219 13.7367 31.9002 14.7967V12.7129C29.1118 11.9187 25.7982 8.61153 26.1061 6.94948C26.5424 5.43772 27.129 4.20875 27.8538 3.41368C28.3887 2.82789 28.9575 2.52973 29.5457 2.52973C32.6824 2.52973 38.0386 7.79788 41.2221 16.3085C43.2073 21.6146 43.1362 27.2052 41.046 30.219Z" fill="#34413B"/>
</svg>
