<svg width="72" height="72" viewBox="0 0 72 72" fill="none" xmlns="http://www.w3.org/2000/svg">
<g id="24x24/On Light/Notification-Alert">
<path id="Shape" fill-rule="evenodd" clip-rule="evenodd" d="M36 6.75C37.9467 6.75 39.8287 7.04918 41.6001 7.60568C40.7862 8.87494 40.1414 10.263 39.6975 11.7381C38.5167 11.4195 37.2767 11.25 36 11.25C28.6684 11.25 22.5465 16.8406 21.8827 24.1421L20.5434 38.8751C20.2847 41.7205 18.5722 44.2295 16.0168 45.5072C14.9299 46.0506 14.25 47.1507 14.25 48.3541V49.5C14.25 50.7426 15.2574 51.75 16.5 51.75H55.5C56.7426 51.75 57.75 50.7426 57.75 49.5V48.3541C57.75 47.1507 57.0701 46.0506 55.9938 45.5125C53.4278 44.2295 51.7153 41.7205 51.4566 38.8751L50.8625 32.3394C52.3157 32.7641 53.8519 32.9943 55.4411 32.9999L55.9382 38.4677C56.0557 39.761 56.8341 40.9015 57.9957 41.4823L58.0062 41.4875C60.6071 42.788 62.25 45.4463 62.25 48.3541V49.5C62.25 53.2279 59.2279 56.25 55.5 56.25H44.25V57.75C44.25 62.3064 40.5564 66 36 66C31.4437 66 27.75 62.3064 27.75 57.75V56.25H16.5C12.7721 56.25 9.75 53.2279 9.75 49.5V48.3541C9.75 45.4463 11.3929 42.788 13.9938 41.4875L14.0043 41.4823C15.1659 40.9015 15.9443 39.761 16.0618 38.4677L17.4012 23.7347C18.2757 14.1153 26.341 6.75 36 6.75ZM32.25 56.25V57.75C32.25 59.8211 33.9289 61.5 36 61.5C38.0711 61.5 39.75 59.8211 39.75 57.75V56.25H32.25ZM45.1688 14.6145C45.455 13.0363 46.0938 11.5811 47.0008 10.3332C51.206 13.4016 54.0951 18.1943 54.5988 23.7347L54.8941 26.9828C53.2087 26.8869 51.6297 26.3935 50.2494 25.5949L50.1173 24.1421C49.7686 20.3067 47.9139 16.9434 45.1688 14.6145Z" fill="#141124"/>
<path id="Shape_2" d="M55.5 27C49.701 27 45 22.299 45 16.5C45 10.701 49.701 6 55.5 6C61.299 6 66 10.701 66 16.5C66 22.299 61.299 27 55.5 27Z" fill="#FF961B"/>
</g>
</svg>
