<svg width="44" height="34" viewBox="0 0 44 34" fill="none" xmlns="http://www.w3.org/2000/svg">
<path fill-rule="evenodd" clip-rule="evenodd" d="M41.679 6.1396C39.2737 1.99851 34.97 1.35134 34.7874 1.32592C34.4484 1.27815 34.1017 1.25427 33.7581 1.25427C30.7627 1.25427 28.4414 3.0463 27.5384 3.86451C26.966 3.34523 25.8997 1.93148 25.0199 0.493849C24.8457 0.210329 24.5383 0.0354401 24.2055 0.0331287L19.7909 0C19.4172 0.01772 19.1014 0.19415 18.9334 0.511569C18.7647 0.828989 18.787 1.21344 18.9904 1.50928C22.9928 7.32454 23.8557 14.5112 22.378 18.0999C21.633 19.9104 20.2686 20.6153 17.5104 20.6153C15.6529 20.6153 13.3924 20.2933 10.4024 19.838C9.88387 19.7594 9.36921 19.7185 8.87305 19.7185C3.53547 19.7185 0.760362 24.3974 0.0384637 26.8705C-0.0462843 27.1617 0.010728 27.4761 0.192551 27.7187C0.374374 27.9607 0.660206 28.104 0.963757 28.104H5.4554C5.77205 28.104 6.0679 27.9483 6.24741 27.6887C6.97316 26.6378 7.87072 26.127 8.98939 26.127C10.887 26.127 12.7383 27.5708 12.7961 27.6155C18.0436 31.356 22.8773 33.2528 27.1632 33.2528C27.1632 33.2528 27.1647 33.2528 27.1655 33.2528C29.3605 33.252 36.8314 32.5193 40.8146 23.083C43.7045 15.8286 43.9957 10.1282 41.679 6.1396ZM39.0333 22.3519C37.8938 25.05 34.4577 31.3252 27.1655 31.3267C27.1647 31.3267 27.164 31.3267 27.1632 31.3267C23.2864 31.3267 18.8286 29.5509 13.9556 26.0785C13.8593 26.0015 11.5696 24.201 8.98938 24.201C7.40228 24.201 6.0232 24.8821 4.97387 26.1779H2.39445C3.22729 24.4845 5.17572 21.6447 8.87304 21.6447C9.27213 21.6447 9.6897 21.6778 10.1127 21.7418C13.1875 22.2102 15.5173 22.5415 17.5104 22.5415C19.8957 22.5415 22.8056 22.12 24.1593 18.8326C25.684 15.1306 25.2071 8.17669 21.5459 1.94001L23.66 1.95542C26.1809 5.95244 27.268 5.95244 27.6339 5.95244H27.6347C27.949 5.95244 28.2503 5.83764 28.4822 5.62963C28.5038 5.6096 28.5246 5.58956 28.5446 5.56799C28.5669 5.54411 30.7919 3.18041 33.7581 3.18041C34.0124 3.18041 34.2689 3.19813 34.5209 3.23357C34.5555 3.23819 38.0733 3.76748 40.0125 7.10732C42.018 10.5581 41.6851 15.6931 39.0333 22.3519Z" fill="#34413B"/>
<path fill-rule="evenodd" clip-rule="evenodd" d="M19.2234 25.2606C19.9199 28.8058 26.8544 28.9134 26.8544 28.9134C36.3516 29.2562 38.2234 15.9199 38.2234 15.9199H27.643C27.4182 24.6706 19.2234 25.2606 19.2234 25.2606Z" fill="#34413B"/>
</svg>
